<svg xmlns="http://www.w3.org/2000/svg" viewBox="-166.484 -49.94 879 1138">
  <path d="M495.025,33.79c23.69-3.63,45.37-16.34,61.58-33.79c3.5,3.1,6.87,6.38,9.82,10.03
    c-6.93,11.94-16.84,21.73-27.021,30.91c-10.58,8.56-22.09,15.96-34.27,22.03c-16.521,8.84-34.41,15.09-52.82,18.51
    c-21.09,3.47-42.71,1.92-63.55-2.43c-39.09-6.89-76.07-21.86-114.42-31.64c-12.73-3.14-25.58-6.8-38.83-6.17
    c-18.87-0.65-37.45,6.9-51.7,19.06c-18.54,15.46-31.39,37.88-34.15,61.979c-2.18,20.43,0,42.13,10.7,60.07
    c4.53,8.36,11.1,15.39,18.07,21.77c17.38,16.36,38.81,27.84,61.17,35.83c74.11,27.52,152.771,41.23,225.61,72.41
    c33.27,13.89,62.68,36.9,84.109,65.89c19.96,27.89,27.69,62.92,26.86,96.81c0.74,29.56-5.3,59.11-16.51,86.41
    c-12.45,29.24-30.7,56.1-53.66,78.1c-9.22,8.51-19.05,16.32-28.91,24.05c-24.66,19.181-52.689,34.061-82.54,43.311
    c-3.979,1.07-7.95,2.17-11.78,3.72c2.86,23.33,3.561,46.91,3.25,70.42c-0.97,44.59-9.09,89.67-28.63,130.061
    c-11.5,23.729-26.909,45.59-45.71,64.1c-31.26,32.14-74.39,52.67-119.229,55.48c-5.94,0.899-11.96,0.649-17.95,0.659
    c-26.79,0.46-53.89-4.68-78.05-16.46c-21.15-10.83-39.93-26.659-53.31-46.359c-9.13-13.46-15.1-28.94-17.71-44.971
    c-1.47-10.88-1.36-21.88-1.26-32.829c18.64-4.69,37.48-8.57,56.18-13.03c5.44-0.76,10.62-2.891,16.1-3.29
    c0.81,2.35,2.47,4.52,2.57,7.06c-1.96,4.59-4.92,8.73-6.39,13.551c-4.44,11.09-5.24,23.22-4.56,35.039
    c0.79,14.311,6.4,28.061,14.85,39.53c8.31,10.65,18.49,20.01,30.48,26.37c20.15,11.04,44.04,13.71,66.58,10.75
    c25-3.1,48.92-14.6,66.6-32.61c20.979-20.38,34.93-47.189,42.64-75.21c3.15-10.25,4.811-20.869,6.79-31.39
    c1.681-14.1,3.431-28.24,3.09-42.47c-0.26-3.38,0.96-6.63,0.771-9.99c-1.75-11.57,0.14-23.39-1.67-34.96
    c-0.55-20.021-2.72-39.94-4.51-59.86c-33.49,0.58-67.311-1.949-99.561-11.449c-1.67-0.521-3.42-0.471-5.14-0.53
    c-11.82,16.83-27.35,31.31-45.8,40.6c-15.99,7.9-33.87,11.851-51.69,11.47c-13.68,0.33-27.41-2.1-40.09-7.26
    c-27.24-11.18-47.6-35.18-58.83-61.93c-2.84-6.76-5.08-13.75-6.76-20.89c-2.61-8.5-3.11-17.421-4.69-26.131
    c-0.47-11.92-2.09-23.899-0.38-35.81c0.35-4.57-0.07-9.22,1.02-13.71c3-32.64,12.97-64.45,27.89-93.57
    c13.95-26.729,31.9-51.32,52.69-73.13c11.93-13.4,25.52-25.19,39.22-36.74c36.26-29.65,78.4-52.18,123.4-65.28
    c7.03-2.45,14.41-3.65,21.52-5.87c-12-3.27-23.66-7.6-35.43-11.56c-18.22-6.71-36.63-13.46-53.17-23.8
    c-17.49-10.9-33.3-24.75-45.56-41.36c-18.27-25.64-23.15-58.48-20.45-89.25c1.8-19.5,7.27-38.74,16.53-56.03
    c8.8-16.99,21.11-31.96,35.07-44.97c16.71-15.73,36.04-28.89,57.31-37.64c19.52-8.32,40.57-12.73,61.7-13.89
    c9.01,0.24,18.14-0.73,27.069,0.81c46.36,4.25,90.11,21.68,135.9,29.09C461.726,34.68,478.546,36,495.025,33.79 M258.496,346.52
    c-34.86,7.87-68.02,22.86-97.34,43.25c-12.04,8.78-24.2,17.64-34.6,28.37c23.66-12.19,50.45-17.57,76.96-17.25
    c18.5-0.24,37.02,2.03,54.89,6.81c30.24,8.08,58.15,24.88,79.35,47.92c0.97,0.13,1.64-0.3,2.01-1.28
    c14.96-23.66,32.97-45.33,52.6-65.25c4.33,3.21,8.82,6.18,13.07,9.49c-1.7,3.83-5.13,6.51-7.35,10.02
    c-13.95,18.94-23.351,40.92-29.11,63.64c-2.45,10.43-4.81,20.94-5.57,31.65c2.37,14.48,3.07,29.57-0.31,43.96
    c-1.72,5.04-1.311,10.52-0.43,15.7c2.5,27.93,7.38,55.569,11.529,83.29c2.13,9.67,2.82,19.569,4.67,29.29
    c0.341,3.1,0.4,6.229,0.591,9.35c0.859,0.01,1.729-0.03,2.6-0.12c30.17-9.89,58.2-26.66,80.62-49.21
    c12.59-12.189,24.22-25.66,32.8-41.01c6.23-12.97,10.19-26.94,12.89-41.04c2.091-9.76,2.36-19.771,3.311-29.66
    c1.43-32.27-3.15-65.46-17.88-94.52c-5.561-10.36-11.28-21.03-20.261-28.88c-13.77-11.99-29.399-21.86-46.17-29.09
    c-29.81-12.53-60.71-22.15-91.649-31.43c-5.57-1.79-11.46-1.09-17.21-1.21C298.296,339.32,278.186,342.11,258.496,346.52
     M179.146,431.76c-18.3,6.89-33.6,19.99-45.68,35.15c-9.49,12.44-16.83,26.63-20.77,41.8c-4.35,15.35-4.3,31.49-3.46,47.291
    c2.72,29.18,16.79,56.449,36.82,77.529c14.15,14.79,30.59,27.41,48.6,37.15c28.3,15.2,60.15,23.3,92.129,25.07
    c8.051,1.369,16.24,0.59,24.36,0.79c-0.81-6.32-1.439-12.65-2.14-18.99c-2.11-24.36-5.391-48.601-6.19-73.07
    c-4.13,0.23-8.13,1.46-12.29,1.39c-7.109,0.03-14.25,0.311-21.34-0.43c-8.84-1.42-17.66-3.5-25.81-7.31
    c-14.78-6.75-27.31-17.94-36.39-31.36c-2.59-4.35-5.99-8.36-7.39-13.29c4.17-2.689,8.62-4.88,12.89-7.4
    c8.29,7.69,17.45,15.03,28.51,18.181c6.89,2.62,14.32,2.689,21.58,2.41c16.55-1.141,32.44-9.79,42.15-23.271
    c1.35-2.02,1.46-4.52,2.04-6.8c2.12-12.36,5.59-24.46,9.89-36.22c1.19-5.89-0.609-11.93-2.37-17.52
    c-3.89-13.25-12.6-24.67-23.119-33.41c-11.591-10-25.621-16.92-40.32-20.97C227.315,422.67,201.926,422.96,179.146,431.76
     M53.756,540.61c-2.67,10.28-3.67,20.87-4.62,31.41c-0.52,20.75-1.33,41.99,4.74,62.09c6.09,24.42,20.74,46.521,40.65,61.87
    c13.17,9.82,29.38,16.3,45.99,15.82c9.4,0.16,18.96-0.33,27.98-3.2c6.69-1.9,13.43-4.4,19-8.66c-24.91-9.81-48.06-24.01-68.35-41.45
    c-15.17-13.26-29.06-28.229-39.54-45.529c-9.37-15.03-15.78-31.801-19.51-49.091c-2.04-11.38-2.94-22.909-3.24-34.439
    C54.835,532.81,54.775,536.89,53.756,540.61" />
</svg>
