<svg xmlns="http://www.w3.org/2000/svg" viewBox="0 0 879 1138" class="logo">
  <path d="M723.09,49.94l9.82,10.03C719.666,84,666.748,131.126,598,133.333C531.826,135.456,458.556,93.2,402,91.18
    c-67.334-2.404-114.878,89.771-68.333,150.819c55.826,73.221,246.28,77.457,338,142.336C723.5,421,750.5,474.5,741.686,552.457
    c-9.825,86.893-77.75,175.316-192.416,208.133C572.5,933,490.518,1081.273,341,1081.31c-116,0.028-156.5-85.81-150.33-140.619
    l72.28-16.32l2.57,7.06c-15.52,25.57-23.96,84.437,38.201,116.463c22.529,11.607,94.185,26.188,144.732-41.518
    s37.042-167.034,31.737-236.195c-37.855,0.986-76.689-4.181-104.19-12.679c-18.74,30.55-76.5,74.249-145.32,42.161
    c-26.687-12.443-72.68-54.912-62.129-157.975c8.6-84.006,59.855-141.712,80.299-163.848c80.817-87.507,177.03-105.67,184.14-107.89
    c-56.055-15.434-132.637-45.285-149.323-108.618C258.922,167.414,319.226,93.32,386,66.332
    c94.757-38.297,157.509,8.77,239.334,17.001C666.196,87.443,693.08,81.595,723.09,49.94z M353.98,749.88
    c-24.91-9.81-47.995-24.086-68.35-41.45c-18.38-15.68-43.13-42.18-53.513-74.896c-6.244-19.676-8.477-42.633-8.777-54.163
    C185.5,724.5,286,792.5,353.98,749.88z M293.04,468.08C366,433.5,456.75,451.75,505,506.5c14.25-23.5,34.22-47.55,53.85-67.47
    l13.07,9.49c-21.67,27.23-38.67,63.73-42.03,105.31c2.943,14.836,2.777,34.42-1.64,49.92c2.252,30.58,17.917,132.085,17.917,132.085
    c40.5-10.168,90.654-46.64,115.793-90.755C685.383,603.976,687.774,498.775,643,454c-37.333-37.333-115.561-55.47-146.5-64.75
    C418.868,386.627,342.326,419.418,293.04,468.08z M477.63,746.48l-8.33-92.061c-70.399,11.108-94.719-34.808-103.22-51l12.89-7.4
    c29.78,31.23,71.834,25.474,93.198-4.186c1.333-14.334,6.5-32.833,12-45.167c-10.667-77-134.013-100.769-184.668-28.917
    C227.624,619.701,319.414,749.418,477.63,746.48z" />
</svg>
